<svg xmlns="http://www.w3.org/2000/svg" width="46.892" height="78" viewBox="0 0 46.892 78"><g transform="translate(-49.555 -615)"><text transform="translate(58.055 689)" fill="#45dee0" font-size="22" font-family="AgencyFB-Reg, Agency FB" letter-spacing="0.001em"><tspan x="0" y="0">WEB</tspan></text><g transform="translate(49.555 615)"><path d="M7.034,7.034A21.285,21.285,0,0,1,23.446,0,21.285,21.285,0,0,1,39.858,7.034a21.285,21.285,0,0,1,7.034,16.412,21.285,21.285,0,0,1-7.034,16.412,21.285,21.285,0,0,1-16.412,7.034A21.285,21.285,0,0,1,7.034,39.858C2.735,35.169,0,30.089,0,23.446A21.285,21.285,0,0,1,7.034,7.034ZM26.572,42.2q2.345,0,5.861-3.517C34,35.95,35.169,33.215,35.169,30.48a6.471,6.471,0,0,0-1.954-4.689,6.879,6.879,0,0,0-5.08-2.345H24.227a11.41,11.41,0,0,1-3.517-.782,3.547,3.547,0,0,1-1.172-2.735,2.03,2.03,0,0,1,.782-1.563,2.962,2.962,0,0,1,1.563-.782,2.667,2.667,0,0,1,1.954,1.172c.782.391,1.172.782,1.563.782a2.349,2.349,0,0,0,1.563-.391,2.349,2.349,0,0,0,.391-1.563A6.218,6.218,0,0,0,25.4,13.677a16.163,16.163,0,0,0,1.954-7.425.84.84,0,0,0-.782-.782,12.08,12.08,0,0,0-3.126-.782c-4.3.391-7.425,1.172-10.16,3.126a9.838,9.838,0,0,0-3.517,7.815A10.005,10.005,0,0,0,12.9,23.055a10.676,10.676,0,0,0,7.425,3.126h0v1.563a5.017,5.017,0,0,0,1.563,3.908A5.69,5.69,0,0,0,25.4,34V41.03c0,.391,0,.391.391.782S26.181,42.2,26.572,42.2Z" fill="#45dee0"/></g></g></svg>