<svg xmlns="http://www.w3.org/2000/svg" width="30.691" height="30.691" viewBox="0 0 30.691 30.691"><path d="M15.345,2.728a47.052,47.052,0,0,1,6.138.171,7.908,7.908,0,0,1,2.9.512,5.988,5.988,0,0,1,2.9,2.9,7.908,7.908,0,0,1,.512,2.9c0,1.535.171,2.046.171,6.138a47.053,47.053,0,0,1-.171,6.138,7.908,7.908,0,0,1-.512,2.9,5.988,5.988,0,0,1-2.9,2.9,7.908,7.908,0,0,1-2.9.512c-1.535,0-2.046.171-6.138.171a47.053,47.053,0,0,1-6.138-.171,7.908,7.908,0,0,1-2.9-.512,5.988,5.988,0,0,1-2.9-2.9,7.908,7.908,0,0,1-.512-2.9c0-1.535-.171-2.046-.171-6.138A47.052,47.052,0,0,1,2.9,9.207a7.908,7.908,0,0,1,.512-2.9A6.124,6.124,0,0,1,4.6,4.6,2.883,2.883,0,0,1,6.309,3.41a7.908,7.908,0,0,1,2.9-.512,47.052,47.052,0,0,1,6.138-.171m0-2.728A50.379,50.379,0,0,0,9.037.171,10.526,10.526,0,0,0,5.286.853,6.675,6.675,0,0,0,2.558,2.558,6.675,6.675,0,0,0,.853,5.286,7.769,7.769,0,0,0,.171,9.037,50.379,50.379,0,0,0,0,15.345a50.379,50.379,0,0,0,.171,6.309,10.526,10.526,0,0,0,.682,3.751,6.675,6.675,0,0,0,1.705,2.728,6.675,6.675,0,0,0,2.728,1.705,10.526,10.526,0,0,0,3.751.682,50.379,50.379,0,0,0,6.309.171,50.379,50.379,0,0,0,6.309-.171,10.526,10.526,0,0,0,3.751-.682,7.153,7.153,0,0,0,4.433-4.433,10.526,10.526,0,0,0,.682-3.751c0-1.705.171-2.217.171-6.309a50.379,50.379,0,0,0-.171-6.309,10.526,10.526,0,0,0-.682-3.751,6.675,6.675,0,0,0-1.705-2.728A6.675,6.675,0,0,0,25.405.853,10.526,10.526,0,0,0,21.654.171,50.379,50.379,0,0,0,15.345,0m0,7.5A7.717,7.717,0,0,0,7.5,15.345,7.843,7.843,0,1,0,15.345,7.5m0,12.958a5.024,5.024,0,0,1-5.115-5.115,5.024,5.024,0,0,1,5.115-5.115,5.024,5.024,0,0,1,5.115,5.115,5.024,5.024,0,0,1-5.115,5.115M23.53,5.286a1.876,1.876,0,1,0,1.876,1.876A1.892,1.892,0,0,0,23.53,5.286" fill="#42dddc" fill-rule="evenodd"/></svg>