<svg xmlns="http://www.w3.org/2000/svg" width="35.074" height="30.449" viewBox="0 0 35.074 30.449"><rect width="26.691" height="26.691" transform="translate(0)" fill="none"/><path d="M49.107,30.449c13.25,0,20.46-10.912,20.46-20.46V9.015a15.839,15.839,0,0,0,3.507-3.7,16.176,16.176,0,0,1-4.092,1.169,7.581,7.581,0,0,0,3.118-3.9,17.873,17.873,0,0,1-4.482,1.754A6.959,6.959,0,0,0,62.357,2a7.321,7.321,0,0,0-7.21,7.21,3.8,3.8,0,0,0,.195,1.559,20.146,20.146,0,0,1-14.809-7.6,7.462,7.462,0,0,0-.974,3.7,7.742,7.742,0,0,0,3.118,6.041,6.569,6.569,0,0,1-3.313-.974h0a7.121,7.121,0,0,0,5.846,7.015,6.007,6.007,0,0,1-1.949.195,3.316,3.316,0,0,1-1.364-.195,7.382,7.382,0,0,0,6.82,5.066,14.712,14.712,0,0,1-8.963,3.118A5.4,5.4,0,0,1,38,26.942a18.392,18.392,0,0,0,11.107,3.507" transform="translate(-38)" fill="#42dddc" fill-rule="evenodd"/></svg>